<mxfile host="app.diagrams.net" modified="2023-06-27T09:31:40.736Z" agent="Mozilla/5.0 (Macintosh; Intel Mac OS X 10_15_7) AppleWebKit/605.1.15 (KHTML, like Gecko) Version/16.5 Safari/605.1.15" version="21.5.1" etag="T0S5jw6u_0NDslqxqJ-V" type="github">
  <diagram name="Page-1" id="MxdofRnwjVfK6yN-_ZJ4">
    <mxGraphModel>
      <root>
        <mxCell id="0" />
        <mxCell id="1" parent="0" />
      </root>
    </mxGraphModel>
  </diagram>
</mxfile>
